<svg width="107" height="323" viewBox="0 0 107 323" fill="none" xmlns="http://www.w3.org/2000/svg">
<rect width="107" height="323" fill="#FEFEFE"/>
<g filter="url(#filter0_i_4_205)">
<line x1="53.5" y1="1" x2="53.5" y2="111" stroke="#28282A" stroke-width="3"/>
<path d="M67.5 129.795C67.5 137.337 61.2592 143.5 53.5 143.5C45.7408 143.5 39.5 137.337 39.5 129.795C39.5 126.048 40.8518 123.209 43.4153 120.129C45.2002 117.985 47.4765 115.827 50.2254 113.222C51.2431 112.257 52.3256 111.231 53.472 110.121C54.9596 111.633 56.3795 113.011 57.6969 114.289C57.9971 114.581 58.292 114.867 58.5812 115.148C60.4482 116.965 62.0645 118.573 63.4021 120.142C66.0466 123.245 67.5 126.08 67.5 129.795Z" stroke="#28282A" stroke-width="3"/>
<path d="M50 110H57" stroke="#28282A" stroke-width="3" stroke-linecap="round"/>
<path d="M50 107H57" stroke="#28282A" stroke-width="3" stroke-linecap="round"/>
<path d="M50 104H57" stroke="#28282A" stroke-width="3" stroke-linecap="round"/>
</g>
<g filter="url(#filter1_i_4_205)">
<rect x="15" y="310" width="76" height="13" fill="#28282A"/>
<rect x="20" y="299" width="66" height="11" fill="#28282A"/>
</g>
<defs>
<filter id="filter0_i_4_205" x="38" y="1" width="31" height="144" filterUnits="userSpaceOnUse" color-interpolation-filters="sRGB">
<feFlood flood-opacity="0" result="BackgroundImageFix"/>
<feBlend mode="normal" in="SourceGraphic" in2="BackgroundImageFix" result="shape"/>
<feColorMatrix in="SourceAlpha" type="matrix" values="0 0 0 0 0 0 0 0 0 0 0 0 0 0 0 0 0 0 127 0" result="hardAlpha"/>
<feOffset dx="-4"/>
<feComposite in2="hardAlpha" operator="arithmetic" k2="-1" k3="1"/>
<feColorMatrix type="matrix" values="0 0 0 0 0 0 0 0 0 0 0 0 0 0 0 0 0 0 0.1 0"/>
<feBlend mode="normal" in2="shape" result="effect1_innerShadow_4_205"/>
</filter>
<filter id="filter1_i_4_205" x="15" y="299" width="76" height="24" filterUnits="userSpaceOnUse" color-interpolation-filters="sRGB">
<feFlood flood-opacity="0" result="BackgroundImageFix"/>
<feBlend mode="normal" in="SourceGraphic" in2="BackgroundImageFix" result="shape"/>
<feColorMatrix in="SourceAlpha" type="matrix" values="0 0 0 0 0 0 0 0 0 0 0 0 0 0 0 0 0 0 127 0" result="hardAlpha"/>
<feOffset dx="-4"/>
<feComposite in2="hardAlpha" operator="arithmetic" k2="-1" k3="1"/>
<feColorMatrix type="matrix" values="0 0 0 0 0 0 0 0 0 0 0 0 0 0 0 0 0 0 0.1 0"/>
<feBlend mode="normal" in2="shape" result="effect1_innerShadow_4_205"/>
</filter>
</defs>
</svg>
