<svg width="107" height="443" viewBox="0 0 107 443" fill="none" xmlns="http://www.w3.org/2000/svg">
<rect width="107" height="443" fill="#FEFEFE"/>
<g filter="url(#filter0_i_17_15)">
<line x1="53.5" y1="1" x2="53.5" y2="232" stroke="#28282A" stroke-width="3"/>
<path d="M67.5 257.795C67.5 265.337 61.2592 271.5 53.5 271.5C45.7408 271.5 39.5 265.337 39.5 257.795C39.5 254.048 40.8518 251.209 43.4153 248.129C45.2002 245.985 47.4765 243.827 50.2254 241.222C51.2431 240.257 52.3256 239.231 53.472 238.121C54.9596 239.633 56.3795 241.011 57.6969 242.289C57.9971 242.581 58.292 242.867 58.5812 243.148C60.4482 244.965 62.0645 246.573 63.4021 248.142C66.0466 251.245 67.5 254.08 67.5 257.795Z" stroke="#28282A" stroke-width="3"/>
<path d="M50 238H57" stroke="#28282A" stroke-width="3" stroke-linecap="round"/>
<path d="M50 235H57" stroke="#28282A" stroke-width="3" stroke-linecap="round"/>
<path d="M50 232H57" stroke="#28282A" stroke-width="3" stroke-linecap="round"/>
</g>
<g filter="url(#filter1_i_17_15)">
<rect x="15" y="430" width="76" height="13" fill="#28282A"/>
<rect x="20" y="419" width="66" height="11" fill="#28282A"/>
</g>
<defs>
<filter id="filter0_i_17_15" x="38" y="1" width="31" height="272" filterUnits="userSpaceOnUse" color-interpolation-filters="sRGB">
<feFlood flood-opacity="0" result="BackgroundImageFix"/>
<feBlend mode="normal" in="SourceGraphic" in2="BackgroundImageFix" result="shape"/>
<feColorMatrix in="SourceAlpha" type="matrix" values="0 0 0 0 0 0 0 0 0 0 0 0 0 0 0 0 0 0 127 0" result="hardAlpha"/>
<feOffset dx="-4"/>
<feComposite in2="hardAlpha" operator="arithmetic" k2="-1" k3="1"/>
<feColorMatrix type="matrix" values="0 0 0 0 0 0 0 0 0 0 0 0 0 0 0 0 0 0 0.1 0"/>
<feBlend mode="normal" in2="shape" result="effect1_innerShadow_17_15"/>
</filter>
<filter id="filter1_i_17_15" x="15" y="419" width="76" height="24" filterUnits="userSpaceOnUse" color-interpolation-filters="sRGB">
<feFlood flood-opacity="0" result="BackgroundImageFix"/>
<feBlend mode="normal" in="SourceGraphic" in2="BackgroundImageFix" result="shape"/>
<feColorMatrix in="SourceAlpha" type="matrix" values="0 0 0 0 0 0 0 0 0 0 0 0 0 0 0 0 0 0 127 0" result="hardAlpha"/>
<feOffset dx="-4"/>
<feComposite in2="hardAlpha" operator="arithmetic" k2="-1" k3="1"/>
<feColorMatrix type="matrix" values="0 0 0 0 0 0 0 0 0 0 0 0 0 0 0 0 0 0 0.1 0"/>
<feBlend mode="normal" in2="shape" result="effect1_innerShadow_17_15"/>
</filter>
</defs>
</svg>
